<svg width="32" height="32" viewBox="0 0 32 32" fill="none" xmlns="http://www.w3.org/2000/svg">
<path d="M7.22933 16L3.61921 19.6091L0 16L3.61012 12.3909L7.22933 16ZM16.0045 7.22727L22.1972 13.4182L25.8073 9.80909L16.0045 0L6.19267 9.80909L9.80278 13.4182L16.0045 7.22727ZM28.3899 12.3909L24.7798 16L28.3899 19.6091L32 16L28.3899 12.3909ZM16.0045 24.7727L9.81188 18.5818L6.20176 22.1909L16.0045 32L25.8073 22.1909L22.1972 18.5818L16.0045 24.7727ZM16.0045 19.6091L19.6147 16L16.0045 12.3909L12.3853 16L16.0045 19.6091Z" fill="black"/>
</svg>
