<svg width="64" height="65" viewBox="0 0 64 65" fill="none" xmlns="http://www.w3.org/2000/svg">
<g clip-path="url(#clip0_5_988)">
<path d="M63 32.5C63 49.6208 49.1208 63.5 32 63.5C14.8792 63.5 1 49.6208 1 32.5C1 15.3792 14.8792 1.5 32 1.5C49.1208 1.5 63 15.3792 63 32.5Z" stroke="black" stroke-width="2"/>
<path d="M32 47.86V50.42" stroke="black" stroke-width="2" stroke-miterlimit="10" stroke-linecap="round"/>
<path d="M23.04 20.98C23.04 15.9893 27.1207 11.9509 32.128 12.0213C36.8858 12.0879 40.8935 16.0943 40.96 20.8533C41.0048 24.0674 39.3575 26.8987 36.8512 28.5154C33.7344 30.525 32 34.1141 32 37.8223V41.46" stroke="black" stroke-width="2" stroke-miterlimit="10" stroke-linecap="round"/>
</g>
<defs>
<clipPath id="clip0_5_988">
<rect width="64" height="64" fill="white" transform="translate(0 0.5)"/>
</clipPath>
</defs>
</svg>
