<svg width="32" height="32" viewBox="0 0 32 32" fill="none" xmlns="http://www.w3.org/2000/svg">
<path d="M25.6844 1.67999L18.9956 11.6111C18.9003 11.7541 18.86 11.9268 18.8822 12.0972C18.9044 12.2676 18.9876 12.4242 19.1164 12.538C19.2451 12.6519 19.4107 12.7152 19.5825 12.7164C19.7544 12.7176 19.9208 12.6565 20.0511 12.5444L26.6356 6.83332C26.6741 6.7988 26.7219 6.77626 26.7731 6.76845C26.8243 6.76064 26.8767 6.7679 26.9238 6.78934C26.9709 6.81078 27.0108 6.84548 27.0385 6.8892C27.0663 6.93292 27.0807 6.98377 27.08 7.03554V24.9155C27.08 24.9703 27.0631 25.0237 27.0317 25.0685C27.0003 25.1133 26.9558 25.1474 26.9044 25.1661C26.8529 25.1848 26.797 25.1872 26.7441 25.173C26.6912 25.1588 26.644 25.1286 26.6089 25.0867L6.70667 1.26221C6.38655 0.884198 5.98794 0.580443 5.53855 0.37206C5.08917 0.163678 4.59979 0.0556689 4.10444 0.0555421H3.40889C2.50479 0.0555421 1.63773 0.414692 0.99844 1.05398C0.35915 1.69327 0 2.56034 0 3.46443V28.6467C0 29.5507 0.35915 30.4178 0.99844 31.0571C1.63773 31.6964 2.50479 32.0555 3.40889 32.0555C3.99181 32.0557 4.56505 31.9065 5.0739 31.6221C5.58275 31.3377 6.01023 30.9277 6.31556 30.4311L13.0044 20.5C13.0997 20.357 13.14 20.1843 13.1178 20.0139C13.0956 19.8435 13.0124 19.6869 12.8836 19.573C12.7549 19.4592 12.5893 19.3958 12.4175 19.3947C12.2456 19.3935 12.0792 19.4546 11.9489 19.5667L5.36444 25.2778C5.32586 25.3123 5.27805 25.3348 5.22687 25.3426C5.17568 25.3504 5.12333 25.3432 5.07621 25.3217C5.02908 25.3003 4.98921 25.2656 4.96147 25.2219C4.93373 25.1782 4.91932 25.1273 4.92 25.0755V7.1911C4.92002 7.13636 4.93689 7.08295 4.96831 7.03813C4.99973 6.99331 5.04418 6.95924 5.09563 6.94055C5.14708 6.92186 5.20303 6.91946 5.2559 6.93368C5.30876 6.94789 5.35597 6.97802 5.39111 7.01999L25.2911 30.8489C25.6112 31.2269 26.0098 31.5306 26.4592 31.739C26.9086 31.9474 27.398 32.0554 27.8933 32.0555H28.5889C29.0367 32.0558 29.4803 31.9679 29.8941 31.7967C30.3079 31.6255 30.684 31.3745 31.0008 31.0579C31.3176 30.7413 31.5689 30.3654 31.7403 29.9517C31.9118 29.538 32 29.0945 32 28.6467V3.46443C32 2.56034 31.6409 1.69327 31.0016 1.05398C30.3623 0.414692 29.4952 0.0555421 28.5911 0.0555421C28.0082 0.0553889 27.4349 0.204624 26.9261 0.489004C26.4172 0.773384 25.9898 1.18342 25.6844 1.67999Z" fill="black"/>
</svg>
