<svg width="40" height="40" viewBox="0 0 40 40" fill="none" xmlns="http://www.w3.org/2000/svg">
<path d="M23.1166 5.33334C22.5999 5.18334 22.0666 5.06667 21.5166 5C19.9166 4.8 18.3833 4.91667 16.95 5.33334C17.4333 4.1 18.6333 3.23334 20.0333 3.23334C21.4333 3.23334 22.6333 4.1 23.1166 5.33334Z" stroke="black" stroke-width="3" stroke-miterlimit="10" stroke-linecap="round" stroke-linejoin="round"/>
<path d="M25.0334 31.7667C25.0334 34.5167 22.7834 36.7667 20.0334 36.7667C18.6668 36.7667 17.4001 36.2 16.5001 35.3C15.6001 34.4 15.0334 33.1333 15.0334 31.7667" stroke="black" stroke-width="3" stroke-miterlimit="10"/>
<path d="M20.0335 4.84998C14.5168 4.84998 10.0335 9.33331 10.0335 14.85V19.6666C10.0335 20.6833 9.60015 22.2333 9.08348 23.1L7.16681 26.2833C5.98348 28.25 6.80015 30.4333 8.96681 31.1666C16.1501 33.5666 23.9001 33.5666 31.0835 31.1666C33.1001 30.5 33.9835 28.1166 32.8835 26.2833L30.9668 23.1C30.4668 22.2333 30.0335 20.6833 30.0335 19.6666V14.85C30.0335 9.34998 25.5335 4.84998 20.0335 4.84998Z" stroke="black" stroke-width="3" stroke-miterlimit="10" stroke-linecap="round"/>
</svg>
