<svg width="32" height="32" viewBox="0 0 32 32" fill="none" xmlns="http://www.w3.org/2000/svg">
<path d="M17.3333 14.8667H9.33325" stroke="black" stroke-width="2.5" stroke-linecap="round" stroke-linejoin="round"/>
<path d="M2.66675 14.8667V8.7067C2.66675 5.9867 4.86675 3.7867 7.58675 3.7867H15.0801C17.8001 3.7867 20.0001 5.48003 20.0001 8.20003" stroke="black" stroke-width="2.5" stroke-linecap="round" stroke-linejoin="round"/>
<path d="M23.3067 16.2667C22.6401 16.9067 22.3201 17.8933 22.5868 18.9067C22.9201 20.1467 24.1468 20.9333 25.4268 20.9333H26.6667V22.8667C26.6667 25.8134 24.2801 28.2 21.3334 28.2H8.00008C5.05341 28.2 2.66675 25.8134 2.66675 22.8667V13.5334C2.66675 10.5867 5.05341 8.20003 8.00008 8.20003H21.3334C24.2667 8.20003 26.6667 10.6 26.6667 13.5334V15.4666H25.2267C24.4801 15.4666 23.8001 15.76 23.3067 16.2667Z" stroke="black" stroke-width="2.5" stroke-linecap="round" stroke-linejoin="round"/>
<path d="M29.3335 16.8267V19.5733C29.3335 20.32 28.7201 20.9333 27.9601 20.9333H25.3868C23.9468 20.9333 22.6268 19.88 22.5068 18.44C22.4268 17.6 22.7468 16.8133 23.3068 16.2667C23.8001 15.76 24.4801 15.4666 25.2268 15.4666H27.9601C28.7201 15.4666 29.3335 16.08 29.3335 16.8267Z" stroke="black" stroke-width="2.5" stroke-linecap="round" stroke-linejoin="round"/>
</svg>
